<svg width="102" height="109" viewBox="0 0 102 109" fill="none" xmlns="http://www.w3.org/2000/svg">
<path d="M53.4623 93.5C53.4623 101.784 46.7465 108.5 38.4623 108.5C30.178 108.5 23.4623 101.784 23.4623 93.5C23.4623 85.2157 30.178 78.5 38.4623 78.5C46.7465 78.5 53.4623 85.2157 53.4623 93.5Z" fill="white"/>
<path d="M102 26C102 34.2843 95.2843 41 87 41C78.7157 41 72 34.2843 72 26C72 17.7157 78.7157 11 87 11C95.2843 11 102 17.7157 102 26Z" fill="white"/>
<path d="M35 17.5C35 27.165 27.165 35 17.5 35C7.83502 35 0 27.165 0 17.5C0 7.83502 7.83502 0 17.5 0C27.165 0 35 7.83502 35 17.5Z" fill="white"/>
<path d="M12 23.4471C12.2076 24.463 12.425 25.451 12.6518 26.4118M12.6518 26.4118C25.9256 82.6455 71.5173 45.2342 93 19H28.5L41.4971 103L12.6518 26.4118Z" stroke="white"/>
<path d="M46.5 85L29.5 18L98 32L46.5 85Z" stroke="white"/>
</svg>
