<svg width="100" height="100" viewBox="0 0 100 100" fill="none" xmlns="http://www.w3.org/2000/svg">
<path d="M51.4485 73C51.4485 77.8731 47.498 81.8235 42.6249 81.8235C37.7518 81.8235 33.8014 77.8731 33.8014 73C33.8014 68.1269 37.7518 64.1765 42.6249 64.1765C47.498 64.1765 51.4485 68.1269 51.4485 73Z" fill="white"/>
<path d="M80 33.2941C80 38.1672 76.0495 42.1176 71.1764 42.1176C66.3033 42.1176 62.3529 38.1672 62.3529 33.2941C62.3529 28.421 66.3033 24.4706 71.1764 24.4706C76.0495 24.4706 80 28.421 80 33.2941Z" fill="white"/>
<path d="M40.5882 28.2941C40.5882 33.9794 35.9794 38.5882 30.2941 38.5882C24.6088 38.5882 20 33.9794 20 28.2941C20 22.6088 24.6088 18 30.2941 18C35.9794 18 40.5882 22.6088 40.5882 28.2941Z" fill="white"/>
<path d="M27.0588 31.7924C27.181 32.39 27.3088 32.9712 27.4422 33.5363M27.4422 33.5363C35.2503 66.615 62.069 44.6083 74.7059 29.1765H36.7647L44.4101 78.5882L27.4422 33.5363Z" stroke="white"/>
<path d="M47.3529 68L37.3529 28.5882L77.647 36.8235L47.3529 68Z" stroke="white"/>
</svg>
